<svg width="42" height="27" viewBox="0 0 42 27" fill="none" xmlns="http://www.w3.org/2000/svg">
<path d="M0.768417 9.51737L7.35065 3.82377C8.24277 3.09909 9.55403 3.23428 10.2792 4.12549C11.0047 5.01703 10.8694 6.32744 9.97725 7.05211L5.38168 11.1315L18.9076 22.521C19.2095 23.6255 19.2095 23.6255 19.2095 25.4473C18.7982 25.9534 18.1982 26.2156 17.5933 26.2156C17.1319 26.2156 16.6671 26.063 16.2814 25.7493L0.768417 12.7457C0.282487 12.3507 0 11.7578 0 11.1315C0 10.5053 0.282487 9.91274 0.768417 9.51737Z" fill="white"/>
<path d="M40.7204 9.28526L34.1381 3.59165C33.246 2.86698 31.9347 3.00217 31.2096 3.89337C30.4841 4.78491 30.6194 6.09532 31.5115 6.81999L36.1071 10.8994L22.5811 22.2889C22.2792 23.3934 22.2792 23.3934 22.2792 25.2152C22.6905 25.7212 23.2906 25.9834 23.8955 25.9834C24.3569 25.9834 24.8217 25.8309 25.2074 25.5172L40.7204 12.5136C41.2063 12.1186 41.4888 11.5257 41.4888 10.8994C41.4888 10.2732 41.2063 9.68063 40.7204 9.28526Z" fill="#7B4AE2"/>
<path d="M17.2766 25.911C16.1665 25.6068 15.4434 24.7276 15.6621 23.9472L21.8751 1.45228C22.0938 0.671833 23.1713 0.286005 24.2814 0.590189C24.5628 0.667148 24.8189 0.781036 25.0416 0.920883C25.6973 1.33322 26.0595 1.97111 25.8963 2.55408L19.683 25.0486C19.4643 25.8291 18.3871 26.2152 17.2766 25.911Z" fill="white"/>
</svg>
